<svg width="64" height="64" viewBox="0 0 64 64" fill="none" xmlns="http://www.w3.org/2000/svg">
<path d="M53.3675 44.3747C55.2597 42.9364 56.5 40.6855 56.5 38.125C56.5 33.7752 52.9737 30.25 48.625 30.25H47.0861C48.5539 28.967 49.5 27.1022 49.5 25C49.5 21.1336 46.3664 18 42.5 18H41.8569C42.2473 16.9008 42.5 15.7337 42.5 14.5C42.5 8.70094 37.7991 4 32 4C31.4345 4 30.8898 4.08094 30.3473 4.16625C31.3777 5.60125 32 7.34906 32 9.25C32 14.0822 28.0822 18 23.25 18H21.5C17.6336 18 14.5 21.1336 14.5 25C14.5 27.1022 15.4461 28.967 16.9139 30.25H15.375C11.0263 30.25 7.5 33.7752 7.5 38.125C7.5 40.6855 8.74031 42.9364 10.6325 44.3747C6.87766 44.9741 4 48.2006 4 52.125C4 56.4737 7.52625 60 11.875 60H52.125C56.4737 60 60 56.4737 60 52.125C60 48.2006 57.1223 44.9741 53.3675 44.3747Z" fill="#D1D5DB"/>
</svg>
