<svg width="64" height="64" viewBox="0 0 64 64" fill="none" xmlns="http://www.w3.org/2000/svg">
<path d="M13.3846 8.33333C12.487 8.33333 11.6261 8.68452 10.9913 9.30964C10.3566 9.93477 10 10.7826 10 11.6667V15C10 15.8841 10.3566 16.7319 10.9913 17.357C11.6261 17.9821 12.487 18.3333 13.3846 18.3333H15.0769V48.3333C15.0769 50.1014 15.7901 51.7971 17.0596 53.0474C18.3291 54.2976 20.0508 55 21.8462 55H42.1538C43.9492 55 45.6709 54.2976 46.9404 53.0474C48.2099 51.7971 48.9231 50.1014 48.9231 48.3333V18.3333H50.6154C51.513 18.3333 52.3739 17.9821 53.0087 17.357C53.6434 16.7319 54 15.8841 54 15V11.6667C54 10.7826 53.6434 9.93477 53.0087 9.30964C52.3739 8.68452 51.513 8.33333 50.6154 8.33333H38.7692C38.7692 7.44928 38.4126 6.60143 37.7779 5.97631C37.1432 5.35119 36.2823 5 35.3846 5H28.6154C27.7177 5 26.8568 5.35119 26.2221 5.97631C25.5874 6.60143 25.2308 7.44928 25.2308 8.33333H13.3846ZM23.5385 21.6667C23.9873 21.6667 24.4177 21.8423 24.7351 22.1548C25.0525 22.4674 25.2308 22.8913 25.2308 23.3333V46.6667C25.2308 47.1087 25.0525 47.5326 24.7351 47.8452C24.4177 48.1577 23.9873 48.3333 23.5385 48.3333C23.0896 48.3333 22.6592 48.1577 22.3418 47.8452C22.0245 47.5326 21.8462 47.1087 21.8462 46.6667V23.3333C21.8462 22.8913 22.0245 22.4674 22.3418 22.1548C22.6592 21.8423 23.0896 21.6667 23.5385 21.6667ZM32 21.6667C32.4488 21.6667 32.8793 21.8423 33.1966 22.1548C33.514 22.4674 33.6923 22.8913 33.6923 23.3333V46.6667C33.6923 47.1087 33.514 47.5326 33.1966 47.8452C32.8793 48.1577 32.4488 48.3333 32 48.3333C31.5512 48.3333 31.1207 48.1577 30.8034 47.8452C30.486 47.5326 30.3077 47.1087 30.3077 46.6667V23.3333C30.3077 22.8913 30.486 22.4674 30.8034 22.1548C31.1207 21.8423 31.5512 21.6667 32 21.6667ZM42.1538 23.3333V46.6667C42.1538 47.1087 41.9756 47.5326 41.6582 47.8452C41.3408 48.1577 40.9104 48.3333 40.4615 48.3333C40.0127 48.3333 39.5823 48.1577 39.2649 47.8452C38.9475 47.5326 38.7692 47.1087 38.7692 46.6667V23.3333C38.7692 22.8913 38.9475 22.4674 39.2649 22.1548C39.5823 21.8423 40.0127 21.6667 40.4615 21.6667C40.9104 21.6667 41.3408 21.8423 41.6582 22.1548C41.9756 22.4674 42.1538 22.8913 42.1538 23.3333Z" fill="#FF1C1C"/>
</svg>
