<svg width="64" height="64" viewBox="0 0 64 64" fill="none" xmlns="http://www.w3.org/2000/svg">
<path d="M32 16C30.0222 16 28.0888 16.5865 26.4443 17.6853C24.7998 18.7841 23.5181 20.3459 22.7612 22.1732C22.0043 24.0004 21.8063 26.0111 22.1922 27.9509C22.578 29.8907 23.5304 31.6725 24.9289 33.0711C26.3275 34.4696 28.1093 35.422 30.0491 35.8079C31.9889 36.1937 33.9996 35.9957 35.8268 35.2388C37.6541 34.4819 39.2159 33.2002 40.3147 31.5557C41.4135 29.9112 42 27.9778 42 26C42 23.3478 40.9464 20.8043 39.0711 18.9289C37.1957 17.0536 34.6522 16 32 16Z" fill="#E2E2E2"/>
<path d="M32 4C26.4621 4 21.0486 5.64217 16.444 8.71885C11.8395 11.7955 8.25064 16.1685 6.13139 21.2849C4.01213 26.4012 3.45764 32.0311 4.53802 37.4625C5.61841 42.894 8.28515 47.8831 12.201 51.799C16.1169 55.7149 21.106 58.3816 26.5375 59.462C31.969 60.5424 37.5988 59.9879 42.7151 57.8686C47.8315 55.7494 52.2045 52.1605 55.2812 47.556C58.3578 42.9514 60 37.5379 60 32C59.9915 24.5765 57.0388 17.4595 51.7896 12.2104C46.5405 6.96118 39.4235 4.00847 32 4ZM47.984 49.852C47.9442 47.2287 46.8753 44.726 45.0078 42.8832C43.1403 41.0404 40.6236 40.0049 38 40H26C23.3764 40.0049 20.8597 41.0404 18.9922 42.8832C17.1247 44.726 16.0559 47.2287 16.016 49.852C12.3891 46.6135 9.83147 42.3497 8.68168 37.6253C7.53189 32.9009 7.84421 27.9387 9.57729 23.3957C11.3104 18.8527 14.3825 14.9433 18.3868 12.1851C22.3911 9.42693 27.1387 7.95005 32.001 7.95005C36.8633 7.95005 41.611 9.42693 45.6153 12.1851C49.6196 14.9433 52.6917 18.8527 54.4247 23.3957C56.1578 27.9387 56.4701 32.9009 55.3203 37.6253C54.1706 42.3497 51.6109 46.6135 47.984 49.852Z" fill="#E2E2E2"/>
</svg>
