<svg width="64" height="64" viewBox="0 0 64 64" fill="none" xmlns="http://www.w3.org/2000/svg">
<g clip-path="url(#clip0_321_4)">
<path d="M50.6667 50.6672C51.3464 50.6679 52.0001 50.9282 52.4943 51.3947C52.9886 51.8613 53.286 52.499 53.3258 53.1775C53.3656 53.856 53.1449 54.5242 52.7087 55.0454C52.2724 55.5666 51.6536 55.9015 50.9787 55.9818L50.6667 56.0005H32C31.3203 55.9997 30.6666 55.7395 30.1724 55.2729C29.6781 54.8063 29.3807 54.1686 29.3409 53.4901C29.3011 52.8116 29.5218 52.1435 29.9581 51.6223C30.3943 51.1011 31.0131 50.7661 31.688 50.6858L32 50.6672H50.6667ZM42.9227 11.6485C44.1439 10.428 45.7911 9.72884 47.5174 9.69831C49.2438 9.66778 50.9146 10.3082 52.1783 11.4848C53.4419 12.6614 54.1998 14.2823 54.2924 16.0064C54.385 17.7305 53.8051 19.4233 52.6747 20.7285L52.3494 21.0752L23.2934 50.1338C23.0394 50.3881 22.7524 50.6069 22.44 50.7845L22.12 50.9445L11.976 55.5578C9.82136 56.5365 7.60802 54.4458 8.33602 52.2912L8.44269 52.0245L13.056 41.8778C13.2039 41.5515 13.3949 41.2466 13.624 40.9712L13.864 40.7045L42.9227 11.6485Z" fill="black"/>
</g>
<defs>
<clipPath id="clip0_321_4">
<rect width="64" height="64" fill="white"/>
</clipPath>
</defs>
</svg>
