<svg width="367" height="119" viewBox="0 0 367 119" fill="none" xmlns="http://www.w3.org/2000/svg">
<path d="M57.149 92.576L12.221 33.92C11.325 32.768 10.461 32.032 9.629 31.712C8.797 31.328 7.581 31.072 5.981 30.944C5.789 30.24 5.661 29.504 5.597 28.736C5.533 27.968 5.501 27.328 5.501 26.816C6.141 26.88 6.845 26.944 7.613 27.008C8.445 27.008 9.277 27.04 10.109 27.104C11.005 27.104 11.837 27.104 12.605 27.104C13.821 27.104 14.973 27.072 16.061 27.008C17.213 26.944 18.205 26.88 19.037 26.816L57.341 77.6L57.149 92.576ZM5.501 92.288C5.501 91.456 5.533 90.72 5.597 90.08C5.661 89.376 5.789 88.736 5.981 88.16C7.709 88.16 9.053 87.744 10.013 86.912C10.973 86.08 11.645 84.64 12.029 82.592C12.413 80.48 12.605 77.632 12.605 74.048V33.44H17.501V74.048C17.501 77.632 17.693 80.48 18.077 82.592C18.461 84.64 19.133 86.08 20.093 86.912C21.053 87.744 22.397 88.16 24.125 88.16C24.317 88.736 24.445 89.344 24.509 89.984C24.573 90.624 24.605 91.392 24.605 92.288C23.645 92.224 22.589 92.16 21.437 92.096C20.349 92.096 19.261 92.064 18.173 92C17.085 92 16.061 92 15.101 92C14.205 92 13.149 92 11.933 92C10.717 92.064 9.533 92.096 8.381 92.096C7.293 92.16 6.333 92.224 5.501 92.288ZM57.149 92.576L56.381 82.976V44.576C56.381 41.056 56.189 38.336 55.805 36.416C55.421 34.432 54.749 33.024 53.789 32.192C52.829 31.36 51.485 30.944 49.757 30.944C49.565 29.856 49.437 29.056 49.373 28.544C49.309 27.968 49.277 27.392 49.277 26.816C50.237 26.88 51.229 26.944 52.253 27.008C53.277 27.008 54.301 27.04 55.325 27.104C56.413 27.104 57.405 27.104 58.301 27.104C59.645 27.104 61.181 27.072 62.909 27.008C64.637 26.944 66.141 26.88 67.421 26.816C67.421 27.456 67.389 28.128 67.325 28.832C67.261 29.536 67.133 30.24 66.941 30.944C65.533 30.944 64.413 31.36 63.581 32.192C62.749 33.024 62.141 34.432 61.757 36.416C61.437 38.336 61.277 41.056 61.277 44.576V92C60.765 92.192 60.125 92.32 59.357 92.384C58.589 92.512 57.853 92.576 57.149 92.576ZM183.571 31.328C180.499 31.328 178.163 31.84 176.562 32.864C175.027 33.824 173.907 35.168 173.203 36.896C172.563 38.624 172.019 40.672 171.571 43.04C170.867 43.04 170.067 42.976 169.171 42.848C168.275 42.72 167.539 42.496 166.963 42.176C167.475 39.488 167.859 36.8 168.115 34.112C168.371 31.424 168.499 28.992 168.499 26.816C170.291 26.88 172.467 26.944 175.027 27.008C177.651 27.072 180.467 27.104 183.475 27.104C186.547 27.104 189.715 27.104 192.979 27.104C196.243 27.104 199.411 27.104 202.483 27.104C205.619 27.104 208.499 27.072 211.123 27.008C213.747 26.944 215.923 26.88 217.651 26.816C217.587 29.12 217.587 31.488 217.651 33.92C217.779 36.352 217.971 39.104 218.227 42.176C217.587 42.496 216.851 42.752 216.019 42.944C215.251 43.072 214.387 43.104 213.427 43.04C213.363 39.264 212.467 36.384 210.739 34.4C209.075 32.352 206.355 31.328 202.579 31.328H183.571ZM188.467 29.696H197.491V79.808C197.491 81.92 197.683 83.584 198.067 84.8C198.451 85.952 199.187 86.784 200.275 87.296C201.363 87.744 202.931 88.032 204.979 88.16C205.171 88.672 205.299 89.28 205.363 89.984C205.427 90.624 205.459 91.392 205.459 92.288C203.411 92.16 201.299 92.064 199.123 92C197.011 92 194.931 92 192.883 92C191.539 92 190.099 92 188.562 92C187.091 92.064 185.651 92.096 184.243 92.096C182.835 92.16 181.523 92.224 180.307 92.288C180.307 91.392 180.339 90.624 180.403 89.984C180.467 89.28 180.595 88.672 180.787 88.16C182.835 88.032 184.403 87.744 185.491 87.296C186.643 86.784 187.411 85.952 187.795 84.8C188.243 83.584 188.467 81.92 188.467 79.808V29.696ZM242.407 26.816C243.367 26.88 244.551 26.944 245.959 27.008C247.431 27.008 248.967 27.04 250.567 27.104C252.167 27.104 253.671 27.104 255.079 27.104C256.551 27.104 257.703 27.104 258.535 27.104V78.752C258.535 81.12 258.759 82.944 259.207 84.224C259.655 85.504 260.519 86.4 261.799 86.912C263.079 87.424 264.903 87.68 267.271 87.68V92C265.479 92 263.399 92 261.031 92C258.727 92 256.359 92 253.927 92C251.559 92.064 249.351 92.096 247.303 92.096C245.255 92.16 243.623 92.224 242.407 92.288C242.407 91.392 242.439 90.624 242.503 89.984C242.567 89.28 242.695 88.672 242.887 88.16C244.615 88.032 245.959 87.712 246.919 87.2C247.879 86.688 248.551 85.792 248.935 84.512C249.319 83.168 249.511 81.248 249.511 78.752V39.296C249.511 37.12 249.319 35.456 248.935 34.304C248.551 33.152 247.879 32.32 246.919 31.808C245.959 31.296 244.615 31.008 242.887 30.944C242.695 30.432 242.567 29.824 242.503 29.12C242.439 28.352 242.407 27.584 242.407 26.816ZM286.567 75.584C287.527 75.84 288.327 76.16 288.967 76.544C289.607 76.864 290.215 77.312 290.791 77.888C290.087 80.064 289.479 82.432 288.967 84.992C288.519 87.552 288.135 89.952 287.815 92.192C286.599 92.128 284.935 92.096 282.823 92.096C280.775 92.096 278.407 92.064 275.719 92C273.095 92 270.279 92 267.271 92V87.68H267.847C272.455 87.68 275.911 87.232 278.215 86.336C280.583 85.376 282.343 84 283.495 82.208C284.647 80.416 285.671 78.208 286.567 75.584ZM279.847 48.8C279.783 50.4 279.719 52.128 279.655 53.984C279.655 55.84 279.655 57.6 279.655 59.264C279.655 60.928 279.655 62.784 279.655 64.832C279.719 66.88 279.783 68.736 279.847 70.4C279.015 70.4 278.247 70.368 277.543 70.304C276.839 70.24 276.135 70.112 275.431 69.92C275.175 66.592 274.279 64.352 272.743 63.2C271.271 61.984 268.551 61.376 264.583 61.376H257.671V57.248H264.583C268.551 57.248 271.303 56.736 272.839 55.712C274.375 54.688 275.175 52.608 275.239 49.472C276.071 49.216 276.839 49.056 277.543 48.992C278.247 48.864 279.015 48.8 279.847 48.8ZM285.511 26.816C285.639 28.224 285.799 29.856 285.991 31.712C286.183 33.568 286.407 35.392 286.663 37.184C286.919 38.976 287.207 40.576 287.527 41.984C287.015 42.432 286.375 42.752 285.607 42.944C284.903 43.072 284.103 43.136 283.207 43.136C283.079 41.152 282.567 39.232 281.671 37.376C280.775 35.52 279.207 33.984 276.967 32.768C274.791 31.552 271.623 30.944 267.463 30.944H256.519L258.535 27.104C263.591 27.104 267.911 27.104 271.495 27.104C275.143 27.04 278.119 26.976 280.423 26.912C282.791 26.848 284.487 26.816 285.511 26.816ZM339.922 92.864C335.954 92.864 332.466 92.32 329.458 91.232C326.514 90.08 323.506 88.576 320.434 86.72C320.818 84.288 321.042 81.856 321.106 79.424C321.234 76.992 321.298 74.88 321.298 73.088C322.002 72.896 322.834 72.768 323.794 72.704C324.754 72.576 325.65 72.512 326.482 72.512C326.674 75.776 327.25 78.592 328.21 80.96C329.234 83.264 330.802 85.056 332.914 86.336C335.09 87.616 337.874 88.256 341.266 88.256C345.682 88.256 348.818 87.296 350.674 85.376C352.594 83.392 353.554 81.024 353.554 78.272C353.554 75.456 352.786 73.152 351.25 71.36C349.714 69.504 347.73 67.936 345.298 66.656C342.866 65.376 340.274 64.128 337.522 62.912C334.834 61.696 332.274 60.288 329.842 58.688C327.41 57.088 325.426 55.104 323.89 52.736C322.354 50.304 321.586 47.232 321.586 43.52C321.586 39.936 322.354 36.864 323.89 34.304C325.49 31.68 327.73 29.696 330.61 28.352C333.49 26.944 336.914 26.24 340.882 26.24C343.122 26.24 345.234 26.432 347.218 26.816C349.266 27.2 351.122 27.712 352.786 28.352C354.45 28.992 355.826 29.696 356.914 30.464C356.914 32.32 356.946 34.464 357.01 36.896C357.074 39.328 357.234 41.408 357.49 43.136C356.786 43.392 355.922 43.616 354.898 43.808C353.938 43.936 353.01 44 352.114 44C351.474 40.288 350.642 37.472 349.618 35.552C348.594 33.632 347.346 32.32 345.874 31.616C344.402 30.848 342.706 30.464 340.786 30.464C337.394 30.464 334.738 31.296 332.818 32.96C330.898 34.624 329.938 36.96 329.938 39.968C329.938 42.784 330.706 45.12 332.242 46.976C333.778 48.832 335.762 50.432 338.194 51.776C340.626 53.12 343.186 54.432 345.874 55.712C348.562 56.928 351.122 58.336 353.554 59.936C355.986 61.472 357.97 63.392 359.506 65.696C361.042 68 361.81 70.912 361.81 74.432C361.81 77.632 361.042 80.64 359.506 83.456C357.97 86.272 355.602 88.544 352.402 90.272C349.202 92 345.042 92.864 339.922 92.864Z" fill="#E2E2E2"/>
<path d="M122.3 56.591V26L142.1 62.3L128.9 82.1H109.1L95.9 62.3L115.7 26V56.591C114.442 57.3174 113.458 58.4388 112.902 59.7811C112.346 61.1233 112.249 62.6116 112.625 64.015C113.001 65.4184 113.83 66.6584 114.982 67.5429C116.135 68.4274 117.547 68.9068 119 68.9068C120.453 68.9068 121.865 68.4274 123.018 67.5429C124.17 66.6584 124.999 65.4184 125.375 64.015C125.751 62.6116 125.654 61.1233 125.098 59.7811C124.542 58.4388 123.558 57.3174 122.3 56.591ZM105.8 85.4H132.2V92H105.8V85.4Z" fill="#E2E2E2"/>
</svg>
